<svg width="211" height="211" viewBox="0 0 211 211" fill="none" xmlns="http://www.w3.org/2000/svg">
<rect x="34.7956" y="35.8218" width="139.904" height="139.904" stroke="#FF0000" stroke-width="4.51304"/>
<path d="M22.404 29H19.4295L23.9618 15.8711H27.5389L32.0647 29H29.0902L25.8016 18.8713H25.699L22.404 29ZM22.2181 23.8395H29.2441V26.0063H22.2181V23.8395Z" fill="white"/>
<path d="M178.098 29V15.8711H183.354C184.32 15.8711 185.126 16.0143 185.771 16.3007C186.416 16.587 186.901 16.9844 187.226 17.493C187.551 17.9973 187.713 18.5785 187.713 19.2367C187.713 19.7495 187.611 20.2004 187.406 20.5893C187.201 20.974 186.919 21.2902 186.56 21.5381C186.205 21.7817 185.799 21.9548 185.342 22.0573V22.1856C185.842 22.2069 186.31 22.348 186.745 22.6087C187.186 22.8694 187.543 23.2348 187.816 23.7049C188.09 24.1707 188.226 24.7263 188.226 25.3716C188.226 26.0682 188.053 26.6901 187.707 27.2371C187.365 27.7799 186.859 28.2094 186.188 28.5256C185.517 28.8419 184.69 29 183.707 29H178.098ZM180.873 26.7307H183.136C183.91 26.7307 184.474 26.5832 184.829 26.2883C185.183 25.9892 185.361 25.5917 185.361 25.096C185.361 24.7327 185.273 24.4122 185.098 24.1344C184.923 23.8566 184.673 23.6386 184.348 23.4805C184.027 23.3224 183.645 23.2433 183.2 23.2433H180.873V26.7307ZM180.873 21.365H182.931C183.312 21.365 183.649 21.2988 183.944 21.1663C184.243 21.0295 184.478 20.8372 184.649 20.5893C184.824 20.3415 184.912 20.0444 184.912 19.6983C184.912 19.2239 184.743 18.8414 184.406 18.5508C184.072 18.2602 183.598 18.1148 182.982 18.1148H180.873V21.365Z" fill="white"/>
<path d="M189.682 187.45H186.874C186.822 187.087 186.718 186.764 186.56 186.482C186.401 186.196 186.198 185.952 185.951 185.751C185.703 185.55 185.416 185.397 185.092 185.29C184.771 185.183 184.423 185.13 184.047 185.13C183.367 185.13 182.775 185.298 182.271 185.636C181.767 185.969 181.376 186.457 181.098 187.098C180.82 187.734 180.681 188.508 180.681 189.418C180.681 190.354 180.82 191.141 181.098 191.777C181.38 192.414 181.773 192.895 182.277 193.22C182.782 193.544 183.365 193.707 184.027 193.707C184.399 193.707 184.743 193.658 185.06 193.559C185.38 193.461 185.664 193.318 185.912 193.13C186.16 192.938 186.365 192.705 186.528 192.431C186.694 192.158 186.81 191.846 186.874 191.495L189.682 191.508C189.609 192.111 189.427 192.692 189.137 193.252C188.85 193.807 188.464 194.305 187.976 194.745C187.493 195.181 186.916 195.527 186.245 195.784C185.579 196.036 184.824 196.162 183.983 196.162C182.812 196.162 181.764 195.897 180.841 195.367C179.923 194.837 179.196 194.07 178.662 193.066C178.132 192.061 177.867 190.846 177.867 189.418C177.867 187.986 178.136 186.768 178.675 185.764C179.213 184.76 179.944 183.995 180.867 183.469C181.79 182.939 182.829 182.674 183.983 182.674C184.743 182.674 185.448 182.781 186.098 182.995C186.752 183.208 187.331 183.52 187.835 183.931C188.34 184.337 188.75 184.835 189.066 185.424C189.387 186.014 189.592 186.689 189.682 187.45Z" fill="white"/>
<path d="M25.6615 195.983H21.0074V182.854H25.7C27.0205 182.854 28.1573 183.117 29.1104 183.642C30.0634 184.164 30.7964 184.914 31.3092 185.892C31.8263 186.871 32.0849 188.042 32.0849 189.405C32.0849 190.773 31.8263 191.948 31.3092 192.931C30.7964 193.914 30.0592 194.668 29.0976 195.194C28.1403 195.72 26.9949 195.983 25.6615 195.983ZM23.7832 193.604H25.5461C26.3667 193.604 27.0569 193.459 27.6167 193.168C28.1809 192.873 28.604 192.418 28.886 191.803C29.1724 191.183 29.3155 190.384 29.3155 189.405C29.3155 188.435 29.1724 187.642 28.886 187.027C28.604 186.412 28.183 185.959 27.6231 185.668C27.0633 185.377 26.3731 185.232 25.5525 185.232H23.7832V193.604Z" fill="white"/>
</svg>
